# xmcd
# 
# Track frame offsets:
#     150
#     17501
#     32080
#     55376
#     72260
#     91295
#     108070
#     124612
#     145213
#     163370
#     191630
#     210824
# 
# Disc length: 3071
# 
# Revision: 5
# Processed by: cddbd v1.5.2PL0 Copyright (c) Steve Scherf et al.
# Submitted via: fre:ac v1.0.31
# 
DISCID=9e0bfd0c
DTITLE=Buddy and Julie Miller - Written In Chalk
DYEAR=2009
DGENRE=Country
TTITLE0=Ellis County
TTITLE1=Gasoline And Matches
TTITLE2=Don't Say Goodbye (with Patty Griffin)
TTITLE3=What You Gonna Do Leroy (with Robert Plant)
TTITLE4=Long Time
TTITLE5=One Part, Two Part (with Regina and Ann McCrary)
TTITLE6=Chalk (with Patty Griffin)
TTITLE7=Everytime We Say Goodbye
TTITLE8=Hush, Sorrow (with Regina McCrary)
TTITLE9=Memphis Jane
TTITLE10=June
TTITLE11=The Selfishness In Man (with Emmylou Harris)
EXTD=
EXTT0=
EXTT1=
EXTT2=
EXTT3=
EXTT4=
EXTT5=
EXTT6=
EXTT7=
EXTT8=
EXTT9=
EXTT10=
EXTT11=
PLAYORDER=
